<svg xmlns="http://www.w3.org/2000/svg" width="150.117" height="150.12" viewBox="0 0 150.117 150.12">
  <g id="Group_898" data-name="Group 898" transform="translate(-255.64 -329.536)">
    <rect id="Rectangle_1980" data-name="Rectangle 1980" width="150.117" height="150.12" transform="translate(255.64 329.536)" fill="#004b9e"/>
    <g id="Group_897" data-name="Group 897" transform="translate(270.389 360.454)">
      <g id="Group_895" data-name="Group 895" transform="translate(0.344)">
        <path id="Path_273" data-name="Path 273" d="M280.654,386.736a46.99,46.99,0,0,0,5.952-14.034h-4.677c.245.179.486.361,1.214.906l-6.381,9.118a42.254,42.254,0,0,0-9.722-6.683l5.592-8.631a51.685,51.685,0,0,1,8.263,4.557v-9.842h5.955v-9.237H297v9.237h3.037V372.7H297v1.332a47.357,47.357,0,0,0,4.129,8.447V354.286H324.1v56.7h-10.27v-1.7h-2.854v1.7h-9.844V391.9l-1.823,3.771A23.555,23.555,0,0,1,297,391.477v19.5H286.85V394.514a69.526,69.526,0,0,1-3.707,8.751l-2.914-7.9c-1.644,5.649-3.467,11.121-5.835,15.257l-7.233-9.849c1.766-3.585,5.046-13.976,5.957-18.169Zm-8.022-33.847a52.89,52.89,0,0,1,10.511,5.594l-5.956,9.234a41.171,41.171,0,0,0-9.964-6.137Zm38.34,12.155V369.6h2.854v-4.554Zm0,14.277V384h2.854v-4.68Zm0,14.583v4.741h2.854v-4.741Z" transform="translate(-267.04 -352.889)" fill="#fff"/>
        <path id="Path_274" data-name="Path 274" d="M333.891,376.651h-6.2v34.392H317V367.9h19.989v-1.456H313.9V355.562h23.09v-2.673h11.545v2.673h23.091v10.879H348.537V367.9h19.929v36.337c0,3.163-1.336,6.809-6.621,6.809h-9.236l-1.942-9.968h5.768c1.4,0,1.4-.728,1.4-1.4V376.651h-6.015l3.888.789c-.667,1.823-1.034,2.795-1.578,3.949h2.248v8.322h-8.692v1.462h8.692v8.2h-8.692v10.574H336.992V399.374h-7.839v-8.2h7.839v-1.462h-7.839V381.39h2.674c-.609-1.7-1.276-3.16-1.64-3.949ZM344.1,381.39c.361-1.154.847-3.343,1.211-4.738h-4.8a36.544,36.544,0,0,1,1.218,4.738Z" transform="translate(-251.859 -352.889)" fill="#fff"/>
      </g>
      <g id="Group_896" data-name="Group 896" transform="translate(0 63.334)">
        <path id="Path_275" data-name="Path 275" d="M289.925,405.472c-.078,4.519-1.364,9.793-8,13.073l-3.074-3.858a8.664,8.664,0,0,0,4.807-3.779l-6.591.733v6.825c0,.972.162,1.1,1.6,1.1h6.61a25.963,25.963,0,0,0,3.678-.261v5.063c-1.21.106-2.39.189-3.568.189h-7.8a7.111,7.111,0,0,1-4.464-1.474,5.151,5.151,0,0,1-1.312-3.963v-6.875l-4.671.523-.367-5.091,5.038-.473v-5.542h5.248v5.042Zm-5.273-.339a17.585,17.585,0,0,0-.816-3.935l2.494-.316a24.674,24.674,0,0,1,.945,3.857Zm3.858-.367c-.209-1.234-.342-1.684-.865-3.73l2.44-.311a21.823,21.823,0,0,1,.915,3.618Z" transform="translate(-266.78 -400.726)" fill="#fff"/>
        <path id="Path_276" data-name="Path 276" d="M305.7,425.32a63.485,63.485,0,0,0-19.25-3.04l.933-4.885c7.586.367,13.225.857,20.162,2.673Zm-1.974-8.6c-4.6-1.451-10.809-2.179-15.795-2.595l.778-4.546a73.507,73.507,0,0,1,16.005,2.418Zm1.872-7.376c-6.16-1.872-11.018-2.367-17.564-2.856l.78-4.68a88.28,88.28,0,0,1,17.717,2.339Z" transform="translate(-260.409 -400.376)" fill="#fff"/>
        <path id="Path_277" data-name="Path 277" d="M313.7,406.456V401.5h5.381v4.958h8.162v4.991h-8.162a15.144,15.144,0,0,1-2.234,7.9c-1.256,1.812-3.621,4.068-8.71,5.641l-3.073-4.486c4.437-1.206,7.139-3.123,7.95-5.3a12.487,12.487,0,0,0,.686-3.751H304.72v-4.991Z" transform="translate(-254.489 -400.476)" fill="#fff"/>
        <path id="Path_278" data-name="Path 278" d="M342.853,408.14v5.3h-19v-5.3Z" transform="translate(-248.292 -398.324)" fill="#fff"/>
        <path id="Path_279" data-name="Path 279" d="M347.578,408.306c0,4.1-.1,12.466-4.54,16.774L339,420.828c1.182-1.284,3.437-3.829,3.437-12.15v-5.986h5.145Zm7.22,9.427c3.356-1.474,3.988-5.909,4.329-8.243l4.88,2.468a14.958,14.958,0,0,1-4.936,9.265,14.3,14.3,0,0,1-9.444,3.146V401.776h5.17Z" transform="translate(-243.386 -400.386)" fill="#fff"/>
      </g>
    </g>
  </g>
</svg>
