<svg xmlns="http://www.w3.org/2000/svg" width="18.862" height="18.862" viewBox="0 0 18.862 18.862">
  <path id="Path_142" data-name="Path 142" d="M6.574,0,3.985,2.588,1.4,0,0,1.4,2.588,3.985,0,6.573l1.4,1.4L3.985,5.382,6.574,7.971l1.4-1.4L5.383,3.985,7.971,1.4Z" transform="translate(9.431 3.795) rotate(45)" fill="#fff"/>
  <path id="Path_143" data-name="Path 143" d="M16.1,2.771A9.43,9.43,0,1,0,18.862,9.44,9.4,9.4,0,0,0,16.1,2.771Zm-1.177,12.16A7.767,7.767,0,1,1,17.2,9.44,7.737,7.737,0,0,1,14.923,14.932Z" transform="translate(0 -0.009)" fill="#fff"/>
</svg>
