<svg xmlns="http://www.w3.org/2000/svg" width="18.862" height="18.862" viewBox="0 0 18.862 18.862">
  <g id="Group_706" data-name="Group 706" transform="translate(-746 -642.11)">
    <g id="やや太いバツのアイコン2" transform="translate(746 642.109)">
      <path id="Path_142" data-name="Path 142" d="M154.393,147.826l-2.588,2.588-2.588-2.588-1.4,1.4,2.588,2.588-2.588,2.588,1.4,1.4,2.588-2.588,2.588,2.588,1.4-1.4-2.589-2.588,2.589-2.588Z" transform="translate(-142.373 -142.38)" fill="#fff"/>
      <path id="Path_143" data-name="Path 143" d="M16.1,2.771A9.43,9.43,0,1,0,18.862,9.44,9.4,9.4,0,0,0,16.1,2.771Zm-1.177,12.16A7.767,7.767,0,1,1,17.2,9.44,7.737,7.737,0,0,1,14.923,14.932Z" transform="translate(0 -0.008)" fill="#fff"/>
    </g>
  </g>
</svg>
