<svg xmlns="http://www.w3.org/2000/svg" width="30" height="30" viewBox="0 0 30 30">
  <g id="グループ_795" data-name="グループ 795" transform="translate(-1291 -211)">
    <g id="グループ_683" data-name="グループ 683">
      <g id="グループ_583" data-name="グループ 583" transform="translate(15199 21092)">
        <rect id="長方形_1889" data-name="長方形 1889" width="30" height="30" rx="6" transform="translate(-13908 -20881)" fill="#f4f8fd"/>
      </g>
      <g id="ゴミ箱のアイコン素材" transform="translate(1299 218)">
        <path id="パス_130" data-name="パス 130" d="M67.107,188.3a3.528,3.528,0,0,0,.17,1.161,1.206,1.206,0,0,0,.849.849,1.408,1.408,0,0,0,.262.026h8.958a.461.461,0,0,0,.063,0c.855-.055,1.2-.944,1.2-2.034l.359-8.7H66.748Zm8.192-6.758H77V188.4H75.3Zm-3.29,0h1.7V188.4h-1.7Zm-3.29,0h1.7V188.4h-1.7Z" transform="translate(-65.52 -173.805)" fill="#1467b3"/>
        <path id="パス_131" data-name="パス 131" d="M39.7,2.883c0-.065.008-.131.008-.2V2.505A2.51,2.51,0,0,0,37.2,0H34.918a2.51,2.51,0,0,0-2.506,2.506v.181c0,.066.005.131.011.2h-3.7V4.9H43.4V2.883Zm-1.565-.2a.961.961,0,0,1-.021.2H34.006a.962.962,0,0,1-.021-.2V2.505a.935.935,0,0,1,.933-.933H37.2a.934.934,0,0,1,.933.933Z" transform="translate(-28.721 0.001)" fill="#1467b3"/>
      </g>
    </g>
  </g>
</svg>