<svg xmlns="http://www.w3.org/2000/svg" width="16.063" height="18.532" viewBox="0 0 16.063 18.532">
    <g id="Group_1732" data-name="Group 1732" transform="translate(1 1)">
        <g id="グループ_352" data-name="グループ 352" transform="translate(4.333 5.026)">
            <line id="線_2" data-name="線 2" y1="7.495" transform="translate(2.699)" fill="none" stroke="#fff"
                stroke-linecap="round" stroke-linejoin="round" stroke-width="2" />
            <path id="パス_60" data-name="パス 60" d="M582.373,249.536l2.7,2.569,2.7-2.569"
                transform="translate(-582.373 -244.583)" fill="none" stroke="#fff" stroke-linecap="round"
                stroke-linejoin="round" stroke-width="2" />
        </g>
        <g id="Group_1731" data-name="Group 1731">
            <path id="Path_361" data-name="Path 361"
                d="M586.466,237.061h-8.474a1.037,1.037,0,0,0-1.037,1.037v14.459a1.036,1.036,0,0,0,1.037,1.037h11.989a1.036,1.036,0,0,0,1.037-1.037V241.613a1.037,1.037,0,0,0-.3-.733l-3.516-3.516A1.036,1.036,0,0,0,586.466,237.061Z"
                transform="translate(-576.956 -237.061)" fill="none" stroke="#fff" stroke-linecap="round"
                stroke-linejoin="round" stroke-width="2" />
            <path id="Path_362" data-name="Path 362"
                d="M589.382,237.757v3.516H592.9a.252.252,0,0,0,.178-.43l-3.264-3.264A.251.251,0,0,0,589.382,237.757Z"
                transform="translate(-579.442 -237.15)" fill="#fff" stroke="#fff" stroke-linecap="round"
                stroke-linejoin="round" stroke-width="2" />
        </g>
    </g>
</svg>
