<svg xmlns="http://www.w3.org/2000/svg" width="32.502" height="32.502" viewBox="0 0 32.502 32.502">
  <g id="notifications_none_black_24dp" transform="translate(0 0.001)">
    <path id="パス_42" data-name="パス 42" d="M0,0H32.5V32.5H0Z" transform="translate(0 -0.001)" fill="none"/>
    <path id="パス_43" data-name="パス 43" d="M14.834,28.908A2.716,2.716,0,0,0,17.542,26.2H12.125A2.716,2.716,0,0,0,14.834,28.908Zm8.125-8.125V14.011c0-4.158-2.207-7.638-6.094-8.559V4.531a2.031,2.031,0,1,0-4.063,0v.921c-3.873.921-6.094,4.388-6.094,8.559v6.771L4,23.491v1.354H25.668V23.491Zm-2.708,1.354H9.417V14.011c0-3.359,2.045-6.094,5.417-6.094s5.417,2.736,5.417,6.094Z" transform="translate(1.417 0.885)" fill="#fff"/>
  </g>
</svg>
