<svg xmlns="http://www.w3.org/2000/svg" width="16.12" height="18.157" viewBox="0 0 16.12 18.157">
  <g id="Group_705" data-name="Group 705" transform="translate(-25.059 -13.355)">
    <g id="ゴミ箱のアイコン素材" transform="translate(25.059 13.355)">
      <path id="Path_130" data-name="Path 130" d="M67.142,189.157a3.874,3.874,0,0,0,.187,1.275,1.325,1.325,0,0,0,.933.933,1.547,1.547,0,0,0,.288.029h9.836a.506.506,0,0,0,.069,0c.938-.06,1.321-1.036,1.321-2.234l.394-9.551H66.748Zm9-7.421h1.868v7.527H76.138Zm-3.613,0h1.868v7.527H72.525Zm-3.613,0h1.871v7.527H68.913Z" transform="translate(-65.399 -173.237)" fill="#1467B3"/>
      <path id="Path_131" data-name="Path 131" d="M40.776,3.165c0-.072.009-.144.009-.216v-.2A2.756,2.756,0,0,0,38.033,0H35.526a2.756,2.756,0,0,0-2.752,2.752v.2c0,.072.006.144.012.216H28.721V5.385h16.12V3.165Zm-1.719-.216a1.056,1.056,0,0,1-.023.216H34.524a1.056,1.056,0,0,1-.023-.216v-.2a1.027,1.027,0,0,1,1.025-1.025h2.507a1.025,1.025,0,0,1,1.025,1.025Z" transform="translate(-28.721 0.001)" fill="#1467B3"/>
    </g>
  </g>
</svg>
