<svg id="Component_6_1" data-name="Component 6 – 1" xmlns="http://www.w3.org/2000/svg" width="24" height="17" viewBox="0 0 24 17">
  <rect id="Rectangle_1708" data-name="Rectangle 1708" width="24" height="17" rx="4" fill="#fff"/>
  <path id="Path_189" data-name="Path 189" d="M3.8-.95a3.264,3.264,0,0,0,.78-.08,1.974,1.974,0,0,0,.55-.22l.28,1A2.673,2.673,0,0,1,4.73,0,4.475,4.475,0,0,1,3.66.11,3.7,3.7,0,0,1,2.35-.115a2.936,2.936,0,0,1-1.035-.65A2.929,2.929,0,0,1,.64-1.795,3.676,3.676,0,0,1,.4-3.16,3.647,3.647,0,0,1,.635-4.5,2.951,2.951,0,0,1,1.3-5.525,2.876,2.876,0,0,1,2.33-6.18a3.829,3.829,0,0,1,1.36-.23,3.877,3.877,0,0,1,1.055.12,3.5,3.5,0,0,1,.675.26L5.11-5.02a3.094,3.094,0,0,0-.575-.235,2.438,2.438,0,0,0-.7-.1,2.42,2.42,0,0,0-.77.12,1.618,1.618,0,0,0-.63.385A1.835,1.835,0,0,0,2-4.165a2.882,2.882,0,0,0-.155,1A2.9,2.9,0,0,0,2-2.175a1.867,1.867,0,0,0,.415.685,1.71,1.71,0,0,0,.62.405A2.134,2.134,0,0,0,3.8-.95ZM8.59-6.41a4.384,4.384,0,0,1,1.08.12,4,4,0,0,1,.84.31L10.2-4.96a4.611,4.611,0,0,0-.79-.3,2.773,2.773,0,0,0-.74-.105,1.262,1.262,0,0,0-.745.19.6.6,0,0,0-.265.51.583.583,0,0,0,.23.5,2.617,2.617,0,0,0,.74.33l.6.19a2.743,2.743,0,0,1,1.175.71,1.6,1.6,0,0,1,.425,1.13,1.884,1.884,0,0,1-.15.75,1.671,1.671,0,0,1-.45.61,2.185,2.185,0,0,1-.75.41A3.324,3.324,0,0,1,8.43.11,4.645,4.645,0,0,1,6.36-.35l.31-1.02a4.99,4.99,0,0,0,.84.325,3.17,3.17,0,0,0,.86.115,1.362,1.362,0,0,0,.8-.195.634.634,0,0,0,.27-.545A.64.64,0,0,0,9.4-1.905a.579.579,0,0,0-.165-.22,1.615,1.615,0,0,0-.325-.21,3.3,3.3,0,0,0-.535-.2l-.53-.18A4.025,4.025,0,0,1,7.2-3a2.109,2.109,0,0,1-.5-.37,1.508,1.508,0,0,1-.32-.495A1.769,1.769,0,0,1,6.27-4.53a1.873,1.873,0,0,1,.15-.755,1.617,1.617,0,0,1,.445-.595,2.118,2.118,0,0,1,.73-.39A3.246,3.246,0,0,1,8.59-6.41Zm4.3.11,1.05,3.22.12.385q.07.225.14.465t.135.48q.065.24.105.43h.03q.08-.38.235-.875t.285-.895L16.05-6.3h1.41L15.21,0H13.72L11.44-6.3Z" transform="translate(3 12)" fill="#343434"/>
</svg>
