<svg id="Group_2367" data-name="Group 2367" xmlns="http://www.w3.org/2000/svg" width="20.785" height="19.721" viewBox="0 0 20.785 19.721">
    <g id="Path_657" data-name="Path 657" transform="translate(0 1.125)" fill="none" stroke-linejoin="bevel">
        <path d="M0,0H16.409V18.6H0Z" stroke="none"/>
        <path d="M 1.699995040893555 1.700000762939453 L 1.699995040893555 16.89640045166016 L 14.70858478546143 16.89640045166016 L 14.70858478546143 1.700000762939453 L 1.699995040893555 1.700000762939453 M -5.7220458984375e-06 0 L 16.40858459472656 0 L 16.40858459472656 18.59640121459961 L -5.7220458984375e-06 18.59640121459961 L -5.7220458984375e-06 0 Z" stroke="none" fill="#fff"/>
    </g>
    <g id="Group_2318" data-name="Group 2318" transform="translate(5.393 0)">
        <path id="Path_115" data-name="Path 115" d="M4.979,54.676l.055-.055,5.854-5.854.061-.061.061-.061,3.1-3.1a0,0,0,0,0,0,0L10.65,42.079h0l-3.1,3.1-.061.061-.061.061L1.515,51.212h0L0,56.189a0,0,0,0,0,0,0L4.9,54.7ZM1.1,55.085,1.861,52.6h0l1.729,1.729a0,0,0,0,1,0,0l-2.485.756A0,0,0,0,1,1.1,55.085Z" transform="translate(0 -40.827)" fill="#fff"/>
        <path id="Path_116" data-name="Path 116" d="M387.728,3.6a.993.993,0,0,0,0-1.4L386.291.768a.993.993,0,0,0-1.4,0l-.717.717a0,0,0,0,0,0,0l2.834,2.834h0Z" transform="translate(-372.624 -0.48)" fill="#fff"/>
    </g>
    <path id="Path_658" data-name="Path 658" d="M-16842.674-21151.2h7.592" transform="translate(16847.596 21158.326)" fill="none" stroke="#fff" stroke-linecap="round" stroke-width="1"/>
    <path id="Path_660" data-name="Path 660" d="M-16842.674-21151.2h6.428" transform="translate(16847.596 21161.611)" fill="none" stroke="#fff" stroke-linecap="round" stroke-width="1"/>
</svg>
