<svg xmlns="http://www.w3.org/2000/svg" width="26" height="17" viewBox="0 0 26 17">
    <g id="Group_1821" data-name="Group 1821" transform="translate(-1136 -712)">
        <rect id="Rectangle_1708" data-name="Rectangle 1708" width="26" height="17" rx="4" transform="translate(1136 712)" fill="#fff"/>
        <path id="Path_364" data-name="Path 364" d="M.665-6.4H4.826v1.045H1.862V-3.79H4.645v1.045H1.862v1.7H4.883V0H.665ZM7.41-1.634H7.391L6.394,0H5.1L6.755-2.375,5.187-4.589H6.47l.912,1.472H7.4l.893-1.472H9.576L8.037-2.375,9.738,0H8.446Zm4.7.865a2.475,2.475,0,0,0,1.216-.3l.266.865a2.5,2.5,0,0,1-.727.28,3.629,3.629,0,0,1-.793.09,2.566,2.566,0,0,1-1.021-.19,2.076,2.076,0,0,1-.736-.518,2.163,2.163,0,0,1-.442-.765,2.927,2.927,0,0,1-.147-.941,3.03,3.03,0,0,1,.142-.936,2.055,2.055,0,0,1,.437-.765,2.106,2.106,0,0,1,.736-.513,2.618,2.618,0,0,1,1.04-.19,3.121,3.121,0,0,1,.741.09,2.55,2.55,0,0,1,.693.28l-.256.845a2.318,2.318,0,0,0-.508-.209,2.154,2.154,0,0,0-.584-.076,1.082,1.082,0,0,0-.941.394,1.808,1.808,0,0,0-.285,1.078,1.808,1.808,0,0,0,.29,1.083A1.014,1.014,0,0,0,12.106-.769Zm3.012-1.064a1.214,1.214,0,0,0,.461.812,1.373,1.373,0,0,0,.812.252,2.452,2.452,0,0,0,1.159-.285l.266.845a2.512,2.512,0,0,1-.7.276,3.667,3.667,0,0,1-.86.095,2.808,2.808,0,0,1-1.026-.171A1.945,1.945,0,0,1,14.5-.5a2.007,2.007,0,0,1-.437-.765,3.271,3.271,0,0,1-.142-1,3.181,3.181,0,0,1,.133-.931,2.135,2.135,0,0,1,.4-.76,1.909,1.909,0,0,1,.693-.513,2.4,2.4,0,0,1,.993-.19,2.174,2.174,0,0,1,.826.147,1.763,1.763,0,0,1,.613.408,1.708,1.708,0,0,1,.38.622,2.311,2.311,0,0,1,.128.779,2.888,2.888,0,0,1-.038.456,2.611,2.611,0,0,1-.1.408Zm1.035-1.938a.922.922,0,0,0-.736.328,1.543,1.543,0,0,0-.328.9h1.862v-.123a1.411,1.411,0,0,0-.2-.822A.686.686,0,0,0,16.153-3.771ZM19.975.067H18.759v-6.4h1.216Z" transform="translate(1138.336 723.619)" fill="#343434"/>
    </g>
</svg>
