<svg xmlns="http://www.w3.org/2000/svg" width="20" height="16.579" viewBox="0 0 20 16.579">
  <path id="Icon_awesome-exchange-alt" data-name="Icon awesome-exchange-alt" d="M0,7.312V6.687a.937.937,0,0,1,.937-.937H15V3.874a.938.938,0,0,1,1.6-.663l3.125,3.125a.938.938,0,0,1,0,1.326L16.6,10.787a.938.938,0,0,1-1.6-.663V8.249H.937A.937.937,0,0,1,0,7.312ZM19.062,14.2H5V12.327a.938.938,0,0,0-1.6-.663L.275,14.789a.938.938,0,0,0,0,1.326L3.4,19.24A.938.938,0,0,0,5,18.577V16.7H19.062A.937.937,0,0,0,20,15.764v-.625A.937.937,0,0,0,19.062,14.2Z" transform="translate(0 -2.936)" fill="#fff"/>
</svg>
